<svg width="169" height="169" viewBox="0 0 169 169" fill="none" xmlns="http://www.w3.org/2000/svg">
<g clip-path="url(#clip0_1047_1495)">
<path d="M140.833 0H28.1667C12.6107 0 0 12.6107 0 28.1667V140.833C0 156.389 12.6107 169 28.1667 169H140.833C156.389 169 169 156.389 169 140.833V28.1667C169 12.6107 156.389 0 140.833 0Z" fill="black"/>
<path fill-rule="evenodd" clip-rule="evenodd" d="M55.2667 34.9473L86.142 46.5254L80.4084 61.8148L49.5332 50.2367L55.2667 34.9473Z" fill="white"/>
<path fill-rule="evenodd" clip-rule="evenodd" d="M104.771 31.166L114.969 62.5239L99.4405 67.574L89.2422 36.2161L104.771 31.166Z" fill="white"/>
<path fill-rule="evenodd" clip-rule="evenodd" d="M138.584 67.5272L120.426 95.0515L106.795 86.0595L124.954 58.5352L138.584 67.5272Z" fill="white"/>
<path fill-rule="evenodd" clip-rule="evenodd" d="M131.24 116.622L98.3995 119.587L96.9316 103.324L129.772 100.359L131.24 116.622Z" fill="white"/>
<path fill-rule="evenodd" clip-rule="evenodd" d="M88.2741 141.496L65.4805 117.669L77.2803 106.381L100.074 130.208L88.2741 141.496Z" fill="white"/>
<path fill-rule="evenodd" clip-rule="evenodd" d="M42.0371 123.424L46.4546 90.7461L62.6365 92.9336L58.219 125.611L42.0371 123.424Z" fill="white"/>
<path fill-rule="evenodd" clip-rule="evenodd" d="M27.3477 75.9867L55.65 59.0664L64.029 73.0816L35.7266 90.002L27.3477 75.9867Z" fill="white"/>
</g>
<defs>
<clipPath id="clip0_1047_1495">
<rect width="169" height="169" fill="white"/>
</clipPath>
</defs>
</svg>
