<svg width="169" height="169" viewBox="0 0 169 169" fill="none" xmlns="http://www.w3.org/2000/svg">
<g clip-path="url(#clip0_1047_1513)">
<path d="M140.833 0H28.1667C12.6107 0 0 12.6107 0 28.1667V140.833C0 156.389 12.6107 169 28.1667 169H140.833C156.389 169 169 156.389 169 140.833V28.1667C169 12.6107 156.389 0 140.833 0Z" fill="white"/>
<path fill-rule="evenodd" clip-rule="evenodd" d="M55.2667 34.9512L86.1415 46.5293L80.4079 61.8187L49.5332 50.2406L55.2667 34.9512Z" fill="black"/>
<path fill-rule="evenodd" clip-rule="evenodd" d="M104.771 31.1641L114.969 62.5219L99.4405 67.5721L89.2422 36.2142L104.771 31.1641Z" fill="black"/>
<path fill-rule="evenodd" clip-rule="evenodd" d="M138.583 67.5213L120.425 95.0457L106.795 86.0537L124.953 58.5293L138.583 67.5213Z" fill="black"/>
<path fill-rule="evenodd" clip-rule="evenodd" d="M131.241 116.625L98.3995 119.589L96.9316 103.326L129.772 100.361L131.241 116.625Z" fill="black"/>
<path fill-rule="evenodd" clip-rule="evenodd" d="M88.2746 141.494L65.4805 117.666L77.2801 106.379L100.074 130.206L88.2746 141.494Z" fill="black"/>
<path fill-rule="evenodd" clip-rule="evenodd" d="M42.0371 123.416L46.4546 90.7383L62.6365 92.9258L58.219 125.603L42.0371 123.416Z" fill="black"/>
<path fill-rule="evenodd" clip-rule="evenodd" d="M27.3477 75.9846L55.65 59.0645L64.029 73.0802L35.7266 89.9999L27.3477 75.9846Z" fill="black"/>
</g>
<defs>
<clipPath id="clip0_1047_1513">
<rect width="169" height="169" fill="white"/>
</clipPath>
</defs>
</svg>
