<svg width="170" height="169" viewBox="0 0 170 169" fill="none" xmlns="http://www.w3.org/2000/svg">
<g clip-path="url(#clip0_1047_1504)">
<path d="M141.667 0H28.3334C12.6853 0 0 12.6107 0 28.1667V140.833C0 156.389 12.6853 169 28.3334 169H141.667C157.315 169 170 156.389 170 140.833V28.1667C170 12.6107 157.315 0 141.667 0Z" fill="#F8654B"/>
<path fill-rule="evenodd" clip-rule="evenodd" d="M55.5936 34.9473L86.6516 46.5254L80.8841 61.8148L49.8262 50.2367L55.5936 34.9473Z" fill="white"/>
<path fill-rule="evenodd" clip-rule="evenodd" d="M105.39 31.166L115.648 62.5238L100.028 67.574L89.7695 36.2161L105.39 31.166Z" fill="white"/>
<path fill-rule="evenodd" clip-rule="evenodd" d="M139.403 67.5271L121.137 95.0516L107.426 86.0596L125.692 58.5352L139.403 67.5271Z" fill="white"/>
<path fill-rule="evenodd" clip-rule="evenodd" d="M132.017 116.622L98.9824 119.587L97.5059 103.323L130.541 100.359L132.017 116.622Z" fill="white"/>
<path fill-rule="evenodd" clip-rule="evenodd" d="M88.7956 141.496L65.8672 117.668L77.7369 106.381L100.666 130.208L88.7956 141.496Z" fill="white"/>
<path fill-rule="evenodd" clip-rule="evenodd" d="M42.2852 123.424L46.7287 90.7461L63.0065 92.9336L58.5628 125.611L42.2852 123.424Z" fill="white"/>
<path fill-rule="evenodd" clip-rule="evenodd" d="M27.5098 75.9849L55.9796 59.0645L64.4081 73.0799L35.9382 90.0003L27.5098 75.9849Z" fill="white"/>
</g>
<defs>
<clipPath id="clip0_1047_1504">
<rect width="170" height="169" fill="white"/>
</clipPath>
</defs>
</svg>
