<svg width="216" height="45" viewBox="0 0 216 45" fill="none" xmlns="http://www.w3.org/2000/svg">
<path fill-rule="evenodd" clip-rule="evenodd" d="M52.0352 15.6267V11.2168H78.7043V15.6267H67.9168V34.1703H62.8543V15.6267H52.0352Z" fill="#F8654B"/>
<path fill-rule="evenodd" clip-rule="evenodd" d="M83.9219 11.2168V34.1703H89.016V26.1296H102.808C103.768 26.1296 104.395 26.3313 104.785 26.6862C105.167 27.0343 105.402 27.6058 105.402 28.5371V34.1703H110.464V27.945C110.464 26.5333 109.976 25.377 109.087 24.5645C108.578 24.0994 107.952 23.7596 107.239 23.5456C108.091 23.1363 108.796 22.5967 109.34 21.9301C110.197 20.8788 110.622 19.5478 110.622 18.0031C110.622 15.8273 109.887 14.0972 108.321 12.9279C106.778 11.7757 104.49 11.2168 101.483 11.2168H83.9219ZM100.6 21.8443H89.016V15.4709H100.6C102.285 15.4709 103.489 15.6906 104.264 16.1725C104.995 16.6268 105.402 17.3528 105.402 18.5641C105.402 19.7951 104.991 20.5734 104.252 21.0689C103.478 21.5881 102.276 21.8443 100.6 21.8443Z" fill="#F8654B"/>
<path fill-rule="evenodd" clip-rule="evenodd" d="M117.002 34.1703V11.2168H124.056L134.184 28.3713L144.281 11.2168H151.304V34.1703H146.241V17.2398L136.391 34.1703H131.946L122.096 17.2398V34.1703H117.002Z" fill="#F8654B"/>
<path fill-rule="evenodd" clip-rule="evenodd" d="M165.115 11.2168H158.275V34.1703H163.37V16.5226L179.651 34.1703H186.459V11.2168H181.396V28.8645L165.115 11.2168Z" fill="#F8654B"/>
<path fill-rule="evenodd" clip-rule="evenodd" d="M198.543 11.2168H193.449V34.1703H215.356V29.7604H198.543V11.2168Z" fill="#F8654B"/>
<path fill-rule="evenodd" clip-rule="evenodd" d="M11.9439 3.5957L23.6531 7.93423L21.4787 13.6634L9.76953 9.32491L11.9439 3.5957Z" fill="#F8654B"/>
<path fill-rule="evenodd" clip-rule="evenodd" d="M30.7173 2.17969L34.5849 13.93L28.6957 15.8224L24.8281 4.07206L30.7173 2.17969Z" fill="#F8654B"/>
<path fill-rule="evenodd" clip-rule="evenodd" d="M43.5419 15.805L36.6555 26.1189L31.4863 22.7494L38.3727 12.4355L43.5419 15.805Z" fill="#F8654B"/>
<path fill-rule="evenodd" clip-rule="evenodd" d="M40.7576 34.2015L28.3028 35.3124L27.7461 29.2183L40.2008 28.1074L40.7576 34.2015Z" fill="#F8654B"/>
<path fill-rule="evenodd" clip-rule="evenodd" d="M24.4628 43.5214L15.8184 34.5929L20.2933 30.3633L28.9378 39.2919L24.4628 43.5214Z" fill="#F8654B"/>
<path fill-rule="evenodd" clip-rule="evenodd" d="M6.92773 36.7506L8.60305 24.5059L14.74 25.3256L13.0647 37.5703L6.92773 36.7506Z" fill="#F8654B"/>
<path fill-rule="evenodd" clip-rule="evenodd" d="M1.35547 18.975L12.089 12.6348L15.2667 17.8866L4.53316 24.2269L1.35547 18.975Z" fill="#F8654B"/>
</svg>
