<svg width="216" height="45" viewBox="0 0 216 45" fill="none" xmlns="http://www.w3.org/2000/svg">
<path fill-rule="evenodd" clip-rule="evenodd" d="M52.0352 15.4692V10.959H78.7043V15.4692H67.9168V34.4342H62.8543V15.4692H52.0352Z" fill="white"/>
<path fill-rule="evenodd" clip-rule="evenodd" d="M83.9219 10.959V34.4342H89.016V26.2107H102.808C103.768 26.2107 104.395 26.417 104.785 26.78C105.167 27.136 105.402 27.7204 105.402 28.673V34.4342H110.464V28.0674C110.464 26.6237 109.976 25.441 109.087 24.61C108.579 24.1344 107.952 23.7868 107.239 23.568C108.091 23.1494 108.796 22.5975 109.34 21.9157C110.197 20.8406 110.622 19.4794 110.622 17.8995C110.622 15.6742 109.888 13.9049 108.321 12.709C106.778 11.5306 104.49 10.959 101.483 10.959H83.9219ZM100.6 21.828H89.016V15.3098H100.6C102.285 15.3098 103.489 15.5345 104.264 16.0273C104.995 16.4919 105.402 17.2345 105.402 18.4733C105.402 19.7322 104.991 20.5283 104.252 21.0351C103.478 21.566 102.276 21.828 100.6 21.828Z" fill="white"/>
<path fill-rule="evenodd" clip-rule="evenodd" d="M117.002 34.4342V10.959H124.056L134.184 28.5034L144.281 10.959H151.304V34.4342H146.242V17.1189L136.391 34.4342H131.946L122.096 17.1189V34.4342H117.002Z" fill="white"/>
<path fill-rule="evenodd" clip-rule="evenodd" d="M165.115 10.959H158.275V34.4342H163.37V16.3854L179.651 34.4342H186.459V10.959H181.396V29.0078L165.115 10.959Z" fill="white"/>
<path fill-rule="evenodd" clip-rule="evenodd" d="M198.543 10.959H193.449V34.4342H215.356V29.924H198.543V10.959Z" fill="white"/>
<path fill-rule="evenodd" clip-rule="evenodd" d="M11.944 3.16797L23.6531 7.60507L21.4787 13.4645L9.76953 9.02737L11.944 3.16797Z" fill="white"/>
<path fill-rule="evenodd" clip-rule="evenodd" d="M30.7173 1.71875L34.5849 13.7361L28.6957 15.6715L24.8281 3.65413L30.7173 1.71875Z" fill="white"/>
<path fill-rule="evenodd" clip-rule="evenodd" d="M43.5419 15.6531L36.6555 26.2013L31.4863 22.7553L38.3727 12.207L43.5419 15.6531Z" fill="white"/>
<path fill-rule="evenodd" clip-rule="evenodd" d="M40.7576 34.4669L28.3028 35.603L27.7461 29.3705L40.2008 28.2344L40.7576 34.4669Z" fill="white"/>
<path fill-rule="evenodd" clip-rule="evenodd" d="M24.4628 43.9984L15.8184 34.8668L20.2933 30.541L28.9378 39.6726L24.4628 43.9984Z" fill="white"/>
<path fill-rule="evenodd" clip-rule="evenodd" d="M6.92773 37.0737L8.60305 24.5508L14.74 25.3891L13.0646 37.9121L6.92773 37.0737Z" fill="white"/>
<path fill-rule="evenodd" clip-rule="evenodd" d="M1.35547 18.8945L12.089 12.4102L15.2667 17.7813L4.53316 24.2657L1.35547 18.8945Z" fill="white"/>
</svg>
