<svg width="160" height="162" viewBox="0 0 160 162" fill="none" xmlns="http://www.w3.org/2000/svg">
<path fill-rule="evenodd" clip-rule="evenodd" d="M43.2322 11.3438L85.6168 27.238L77.7459 48.227L35.3613 32.3328L43.2322 11.3438Z" fill="white"/>
<path fill-rule="evenodd" clip-rule="evenodd" d="M111.192 6.1543L125.192 49.2018L103.875 56.1345L89.875 13.0871L111.192 6.1543Z" fill="white"/>
<path fill-rule="evenodd" clip-rule="evenodd" d="M157.61 56.0687L132.682 93.8538L113.971 81.5097L138.898 43.7246L157.61 56.0687Z" fill="white"/>
<path fill-rule="evenodd" clip-rule="evenodd" d="M147.533 123.467L102.449 127.537L100.434 105.211L145.517 101.141L147.533 123.467Z" fill="white"/>
<path fill-rule="evenodd" clip-rule="evenodd" d="M88.5488 157.611L57.2578 124.901L73.4561 109.406L104.747 142.116L88.5488 157.611Z" fill="white"/>
<path fill-rule="evenodd" clip-rule="evenodd" d="M25.0723 132.802L31.1366 87.9434L53.3508 90.9465L47.2866 135.805L25.0723 132.802Z" fill="white"/>
<path fill-rule="evenodd" clip-rule="evenodd" d="M4.9082 67.6828L43.7612 44.4551L55.2637 63.6953L16.4107 86.923L4.9082 67.6828Z" fill="white"/>
</svg>
